<svg width="40" height="40" viewBox="0 0 40 40" fill="none" xmlns="http://www.w3.org/2000/svg">
<path d="M35.96 10.08C34.76 10.6 33.52 10.96 32.2 11.12C33.56 10.32 34.6 9.04 35.08 7.48C33.8 8.24 32.4 8.76 30.92 9.08C29.72 7.8 28 7 26.12 7C22.48 7 19.56 9.96 19.56 13.56C19.56 14.08 19.6 14.56 19.72 15.04C14.28 14.8 9.47999 12.16 6.23999 8.2C3.91999 12.36 6.51999 15.8 8.23999 16.96C7.19999 16.96 6.15999 16.64 5.27999 16.16C5.27999 19.4 7.55999 22.08 10.52 22.68C9.87999 22.88 8.43999 23 7.55999 22.8C8.39999 25.4 10.84 27.32 13.68 27.36C11.44 29.12 8.15999 30.52 3.95999 30.08C6.87999 31.96 10.32 33.04 14.04 33.04C26.12 33.04 32.68 23.04 32.68 14.4C32.68 14.12 32.68 13.84 32.64 13.56C34 12.56 35.12 11.4 35.96 10.08Z" fill="white"/>
</svg>
